name Walk1.mot
datacolumns 19
datarows 15
range 1.65000000 1.72000000
endheader

                time	   L_ground_force_vx	   L_ground_force_vy	   L_ground_force_vz	   L_ground_force_px	   L_ground_force_py	   L_ground_force_pz	   R_ground_force_vx	   R_ground_force_vy	   R_ground_force_vz	   R_ground_force_px	   R_ground_force_py	   R_ground_force_pz	   L_ground_torque_x	   L_ground_torque_y	   L_ground_torque_z	   R_ground_torque_x	   R_ground_torque_y	   R_ground_torque_z	
          1.65000000	          0.03874052	          0.10942898	         -0.00566395	         -0.00007946	          0.00000000	         -0.00005558	        -24.08281926	        429.05073681	        -33.96709380	          0.57505944	          0.00000000	          0.06053013	          0.00000000	         -0.00049141	          0.00000000	          0.00000000	          1.68166289	          0.00000000	
          1.65500000	          0.02755702	          0.07858223	         -0.00458607	         -0.00007366	          0.00000000	         -0.00004104	        -23.21040507	        420.48192000	        -32.75405216	          0.57897587	          0.00000000	          0.06117939	          0.00000000	         -0.00046673	          0.00000000	          0.00000000	          1.50077313	          0.00000000	
          1.66000000	          0.01820584	          0.05258590	         -0.00353214	         -0.00006411	          0.00000000	         -0.00002847	        -22.39271679	        413.62008573	        -31.64323260	          0.58271661	          0.00000000	          0.06176194	          0.00000000	         -0.00041399	          0.00000000	          0.00000000	          1.32400433	          0.00000000	
          1.66500000	          0.01076924	          0.03175604	         -0.00257693	         -0.00005292	          0.00000000	         -0.00001816	        -21.59178304	        408.46798277	        -30.65252676	          0.58624899	          0.00000000	          0.06227571	          0.00000000	         -0.00034743	          0.00000000	          0.00000000	          1.14513294	          0.00000000	
          1.67000000	          0.00514858	          0.01588675	         -0.00176057	         -0.00004156	          0.00000000	         -0.00001011	        -20.76996854	        404.98807582	        -29.79479954	          0.58954739	          0.00000000	          0.06271929	          0.00000000	         -0.00027727	          0.00000000	          0.00000000	          0.95789044	          0.00000000	
          1.67500000	          0.00113697	          0.00445362	         -0.00109781	         -0.00003098	          0.00000000	         -0.00000414	        -19.89319962	        403.10834950	        -29.07687339	          0.59259456	          0.00000000	          0.06309198	          0.00000000	         -0.00021035	          0.00000000	          0.00000000	          0.75654088	          0.00000000	
          1.68000000	         -0.00152552	         -0.00323045	         -0.00058597	         -0.00002175	          0.00000000	          0.00000001	        -18.93307390	        402.72900138	        -28.49985903	          0.59538384	          0.00000000	          0.06339311	          0.00000000	         -0.00015080	          0.00000000	          0.00000000	          0.53584445	          0.00000000	
          1.68500000	         -0.00311228	         -0.00790260	         -0.00021140	         -0.00001411	          0.00000000	          0.00000267	        -17.86768291	        403.73287354	        -28.05962734	          0.59791716	          0.00000000	          0.06362389	          0.00000000	         -0.00010068	          0.00000000	          0.00000000	          0.29131316	          0.00000000	
          1.69000000	         -0.00388369	         -0.01027376	          0.00004553	         -0.00000810	          0.00000000	          0.00000416	        -16.68244658	        405.99346602	        -27.74648677	          0.60020169	          0.00000000	          0.06378737	          0.00000000	         -0.00006058	          0.00000000	          0.00000000	          0.02010865	          0.00000000	
          1.69500000	         -0.00407122	         -0.01098181	          0.00020669	         -0.00000360	          0.00000000	          0.00000479	        -15.37102704	        409.37835809	        -27.54560169	          0.60224990	          0.00000000	          0.06388726	          0.00000000	         -0.00003007	          0.00000000	          0.00000000	         -0.27846283	          0.00000000	
          1.70000000	         -0.00386950	         -0.01056734	          0.00029369	         -0.00000043	          0.00000000	          0.00000482	        -13.93506353	        413.75509229	        -27.43751712	          0.60407960	          0.00000000	          0.06392782	          0.00000000	         -0.00000813	          0.00000000	          0.00000000	         -0.60307163	          0.00000000	
          1.70500000	         -0.00343411	         -0.00946580	          0.00032626	          0.00000164	          0.00000000	          0.00000445	        -12.38231424	        418.99897822	        -27.39827305	          0.60571451	          0.00000000	          0.06391229	          0.00000000	          0.00000658	          0.00000000	          0.00000000	         -0.95103295	          0.00000000	
          1.71000000	         -0.00288331	         -0.00801078	          0.00032134	          0.00000283	          0.00000000	          0.00000387	        -10.72183681	        425.00149170	        -27.40126876	          0.60717986	          0.00000000	          0.06384418	          0.00000000	          0.00001550	          0.00000000	          0.00000000	         -1.31909609	          0.00000000	
          1.71500000	         -0.00230205	         -0.00644414	          0.00029277	          0.00000337	          0.00000000	          0.00000318	         -8.96118643	        431.67378593	        -27.42196428	          0.60849980	          0.00000000	          0.06372897	          0.00000000	          0.00001999	          0.00000000	          0.00000000	         -1.70446673	          0.00000000	
          1.72000000	         -0.00174724	         -0.00492983	          0.00025130	          0.00000346	          0.00000000	          0.00000250	         -7.10747017	        438.94482416	        -27.44038524	          0.60969986	          0.00000000	          0.06357288	          0.00000000	          0.00002129	          0.00000000	          0.00000000	         -2.10513070	          0.00000000	
